<?xml version="1.0"?>
<svg version="1.1" xmlns="http://www.w3.org/2000/svg" width="118" height="36" style="border: dashed 2px #aaa"><path fill="#ffffff" d="M15.98,34.8l0-2.38l2.1-0.84l0-13.16l-2.1-0.84l0-2.38l7.224-0.14l4.2,9.324l4.396-9.184l6.72-0.14l0,2.52l-2.016,0.84l0,13.16l2.1,0.84l0,2.38l-8.344,0l0-2.38l2.184-0.84l0-10.528l-0.756,1.848l-3.164,6.58l-3.024,0.14l-3.22-6.636l-0.476-1.456l0,10.052l2.156,0.84l0,2.38l-7.98,0z M42.65028,34.8l0-2.38l2.1-0.84l0-13.16l-2.1-0.84l0-2.38l8.54-0.14l0,2.52l-2.1,0.84l0,13.16l2.1,0.84l0,2.38l-8.54,0z M65.82056,31.44l0.616-3.08l2.66,0l0,6.44l-14,0l0-2.38l2.1-0.84l0-13.16l-2.1-0.84l0-2.38l8.54-0.14l0,2.52l-2.1,0.84l0,13.02l4.284,0z M92.12684,32.42l0,2.38l-8.904,0l0-2.38l2.1-0.756l-0.672-2.044l-6.216,0l-0.7,2.016l2.184,0.784l0,2.38l-8.456,0l0-2.38l2.044-0.784l6.16-16.492l4.48-0.084l6.02,16.576z M83.72684,26.624l-2.1-6.636l-2.212,6.636l4.312,0z M95.19312,34.8l0-2.38l2.1-0.84l0-13.16l-2.1-0.84l0-2.38l6.72-0.14l7.56,12.936l0-9.576l-2.044-0.84l0-2.38l7.98-0.14l0,2.52l-2.1,0.84l0,16.38l-4.676,0l-7.504-12.684l0,9.464l2.184,0.84l0,2.38l-8.12,0z"/><path fill="#" d=""/></svg>
